<?xml version="1.0" encoding="UTF-8"?>
<!DOCTYPE svg PUBLIC "-//W3C//DTD SVG 1.1//EN" "http://www.w3.org/Graphics/SVG/1.1/DTD/svg11.dtd">
<!-- Creator: CorelDRAW 2021 (64-Bit) -->
<svg xmlns="http://www.w3.org/2000/svg" xml:space="preserve" width="1.45748in" height="0.612945in" version="1.1" style="shape-rendering:geometricPrecision; text-rendering:geometricPrecision; image-rendering:optimizeQuality; fill-rule:evenodd; clip-rule:evenodd"
viewBox="0 0 29.88 12.57"
 xmlns:xlink="http://www.w3.org/1999/xlink"
 xmlns:xodm="http://www.corel.com/coreldraw/odm/2003">
 <defs>
  <style type="text/css">
   <![CDATA[
    .fil0 {fill:white}
    .fil1 {fill:white;fill-rule:nonzero}
   ]]>
  </style>
 </defs>
 <g id="Layer_x0020_1">
  <metadata id="CorelCorpID_0Corel-Layer"/>
  <path class="fil0" d="M3.13 0l8.79 0 0 2.76c-0.42,0.15 -0.75,0.38 -1.02,0.68 -0.26,0.3 -0.46,0.67 -0.58,1.11 -0.11,0.4 -0.17,0.85 -0.17,1.35 0,0.21 0.01,0.41 0.02,0.6 0.01,0.17 0.04,0.35 0.07,0.52l0.01 0.03c0.03,0.18 0.08,0.35 0.13,0.51 0.06,0.17 0.13,0.32 0.21,0.47 0.08,0.14 0.17,0.28 0.28,0.4 0.11,0.13 0.23,0.24 0.35,0.33l0 -0 0 0c0.02,0.01 0.03,0.02 0.05,0.04l-2.15 0 0 -4.97c0.2,-0.16 0.32,-0.41 0.32,-0.68 0,-0.49 -0.4,-0.88 -0.88,-0.88 -0.3,0 -0.57,0.15 -0.73,0.39l-4.71 0 0 -2.64zm3.82 4.26c0.49,0 0.88,0.4 0.88,0.88 0,0.27 -0.12,0.52 -0.32,0.68l0 2.97 0.72 0 0 -4.84c-0.2,-0.08 -0.36,-0.23 -0.45,-0.42l-4.65 0 0 5.25 3.49 0 0 -2.83c-0.32,-0.13 -0.55,-0.45 -0.55,-0.82 0,-0.49 0.4,-0.88 0.88,-0.88z"/>
  <path class="fil0" d="M1.05 3.54c-0.25,0 -0.45,-0.2 -0.45,-0.45 0,-0.25 0.2,-0.45 0.45,-0.45l2.08 0 0 0.9 -2.08 0zm8.08 5.25l0 1.92c0,0.25 -0.2,0.45 -0.45,0.45 -0.25,0 -0.45,-0.2 -0.45,-0.45l0 -1.92 0.9 0z"/>
  <path class="fil0" d="M7.52 8.79l0 1.89c0,0.25 -0.2,0.45 -0.45,0.45l-5.42 0c-0.25,0 -0.45,-0.2 -0.45,-0.45 0,-0.25 0.2,-0.45 0.45,-0.45l4.97 0 0 -1.44 0.9 0z"/>
  <path class="fil0" d="M0.88 2.21c0.49,0 0.88,0.4 0.88,0.88 0,0.49 -0.4,0.88 -0.88,0.88 -0.49,0 -0.88,-0.4 -0.88,-0.88 0,-0.49 0.4,-0.88 0.88,-0.88z"/>
  <path class="fil0" d="M8.68 9.79c0.49,0 0.88,0.4 0.88,0.88 0,0.49 -0.4,0.88 -0.88,0.88 -0.49,0 -0.88,-0.4 -0.88,-0.88 0,-0.49 0.4,-0.88 0.88,-0.88z"/>
  <path class="fil0" d="M0.88 9.79c0.49,0 0.88,0.4 0.88,0.88 0,0.49 -0.4,0.88 -0.88,0.88 -0.49,0 -0.88,-0.4 -0.88,-0.88 0,-0.49 0.4,-0.88 0.88,-0.88z"/>
  <path class="fil1" d="M15.75 5.88c0,0.63 -0.08,1.14 -0.23,1.51 -0.15,0.37 -0.39,0.65 -0.73,0.83 -0.33,0.18 -0.82,0.27 -1.46,0.27 -0.41,0 -0.74,-0.03 -0.99,-0.1 -0.25,-0.07 -0.46,-0.16 -0.63,-0.29 -0.17,-0.12 -0.3,-0.28 -0.41,-0.48 -0.11,-0.19 -0.19,-0.44 -0.25,-0.72 -0.06,-0.29 -0.08,-0.62 -0.08,-1 0,-0.87 0.18,-1.51 0.55,-1.93 0.37,-0.42 0.99,-0.63 1.88,-0.63 0.63,0 1.11,0.08 1.43,0.23 0.32,0.15 0.55,0.41 0.7,0.77 0.15,0.36 0.22,0.87 0.22,1.53zm-1.54 0.05c0,-0.34 -0.02,-0.6 -0.06,-0.78 -0.04,-0.18 -0.11,-0.31 -0.22,-0.4 -0.11,-0.09 -0.29,-0.13 -0.55,-0.13 -0.31,0 -0.53,0.09 -0.66,0.27 -0.13,0.18 -0.19,0.52 -0.19,1.02 0,0.48 0.05,0.82 0.15,1.03 0.1,0.21 0.32,0.31 0.67,0.31 0.2,0 0.37,-0.03 0.5,-0.1 0.13,-0.06 0.22,-0.2 0.28,-0.4 0.06,-0.2 0.08,-0.48 0.08,-0.82zm5.49 -0.77c-0.05,0.28 -0.27,1.15 -0.65,2.6 -0.06,0.25 -0.17,0.41 -0.33,0.5 -0.15,0.09 -0.37,0.14 -0.67,0.14l-0.22 0c-0.24,0 -0.43,-0.05 -0.57,-0.15 -0.14,-0.1 -0.24,-0.26 -0.3,-0.49l-0.88 -3.68c-0.03,-0.15 -0.05,-0.27 -0.05,-0.35 0,-0.06 0.02,-0.11 0.06,-0.17 0.04,-0.05 0.09,-0.08 0.16,-0.09 0.19,-0.03 0.56,-0.04 1.11,-0.04 0.07,0 0.13,0.02 0.19,0.07 0.05,0.05 0.09,0.11 0.11,0.2 0.25,1.19 0.45,2.27 0.6,3.23 0.11,-0.6 0.31,-1.48 0.6,-2.64 0.06,-0.24 0.14,-0.41 0.26,-0.52 0.11,-0.11 0.28,-0.16 0.5,-0.16l0.2 0c0.23,0 0.4,0.05 0.51,0.15 0.11,0.1 0.2,0.26 0.26,0.48 0.02,0.07 0.06,0.2 0.11,0.38 0.05,0.18 0.14,0.49 0.25,0.94 0.12,0.44 0.22,0.9 0.32,1.38 0.1,-0.77 0.28,-1.84 0.52,-3.21 0.04,-0.19 0.14,-0.29 0.3,-0.29 0.49,0 0.83,0.01 1.03,0.04 0.15,0.03 0.22,0.11 0.22,0.24 0,0.03 -0.02,0.12 -0.06,0.29l-0.86 3.74c-0.05,0.23 -0.15,0.39 -0.3,0.49 -0.15,0.1 -0.36,0.15 -0.63,0.15l-0.22 0c-0.26,0 -0.46,-0.05 -0.61,-0.15 -0.15,-0.1 -0.25,-0.26 -0.31,-0.48 -0.36,-1.39 -0.58,-2.26 -0.65,-2.61zm5.65 2.91c0,0.1 -0.03,0.18 -0.08,0.23 -0.06,0.05 -0.12,0.07 -0.2,0.07l-1 0c-0.08,0 -0.14,-0.02 -0.19,-0.07 -0.05,-0.05 -0.07,-0.12 -0.07,-0.23l0 -4.29c0,-0.21 0.09,-0.31 0.27,-0.31l1.01 0c0.08,0 0.14,0.02 0.19,0.06 0.05,0.04 0.07,0.12 0.07,0.24l0 4.3zm0.03 -6.08c0,0.28 -0.07,0.49 -0.2,0.62 -0.14,0.13 -0.34,0.19 -0.6,0.19 -0.53,0 -0.8,-0.27 -0.8,-0.81 0,-0.54 0.27,-0.82 0.8,-0.82 0.19,0 0.34,0.03 0.47,0.1 0.13,0.06 0.21,0.16 0.26,0.3 0.05,0.13 0.07,0.27 0.07,0.41zm2.6 4.6l-0.69 -0.17c-0.5,-0.12 -0.85,-0.29 -1.03,-0.53 -0.18,-0.24 -0.28,-0.57 -0.28,-0.98 0,-0.36 0.08,-0.65 0.24,-0.87 0.16,-0.23 0.39,-0.4 0.68,-0.51 0.29,-0.12 0.67,-0.17 1.11,-0.17 0.25,0 0.51,0.01 0.8,0.04 0.29,0.03 0.52,0.08 0.69,0.14 0.06,0.02 0.11,0.05 0.15,0.1 0.04,0.05 0.06,0.11 0.06,0.18 0,0.12 -0.05,0.36 -0.15,0.74 -0.01,0.05 -0.04,0.1 -0.08,0.13 -0.04,0.04 -0.09,0.05 -0.14,0.05 -0.04,0 -0.14,-0.01 -0.29,-0.04 -0.34,-0.08 -0.71,-0.12 -1.1,-0.12 -0.14,0 -0.26,0.02 -0.34,0.06 -0.09,0.04 -0.13,0.12 -0.13,0.25 0,0.08 0.03,0.14 0.08,0.19 0.05,0.05 0.18,0.1 0.37,0.15l0.65 0.17c0.5,0.14 0.84,0.31 1.02,0.51 0.18,0.21 0.27,0.54 0.27,0.99 0,1.05 -0.69,1.57 -2.07,1.57 -0.29,0 -0.61,-0.02 -0.96,-0.06 -0.35,-0.04 -0.62,-0.1 -0.81,-0.18 -0.13,-0.06 -0.19,-0.15 -0.19,-0.28 0,-0.14 0.06,-0.38 0.17,-0.72 0.02,-0.06 0.05,-0.12 0.1,-0.16 0.05,-0.04 0.1,-0.06 0.16,-0.06 0.06,0 0.17,0.02 0.33,0.07 0.35,0.1 0.78,0.15 1.28,0.15 0.34,0 0.51,-0.1 0.51,-0.31 0,-0.08 -0.03,-0.15 -0.09,-0.2 -0.06,-0.05 -0.17,-0.09 -0.34,-0.13z"/>
  <path class="fil1" d="M16.85 10.71c0.29,0.08 0.48,0.18 0.59,0.31 0.11,0.12 0.16,0.32 0.16,0.58 0,0.23 -0.04,0.42 -0.13,0.56 -0.09,0.14 -0.22,0.24 -0.39,0.31 -0.17,0.07 -0.39,0.1 -0.65,0.1 -0.15,0 -0.3,-0.01 -0.47,-0.03 -0.17,-0.02 -0.32,-0.05 -0.46,-0.1 -0.07,-0.02 -0.1,-0.06 -0.1,-0.12 0,-0.05 0.02,-0.13 0.05,-0.24 0.02,-0.07 0.06,-0.1 0.13,-0.1 0.03,0 0.08,0.01 0.15,0.04 0.22,0.07 0.46,0.11 0.71,0.11 0.22,0 0.38,-0.04 0.48,-0.11 0.1,-0.08 0.15,-0.19 0.15,-0.35 0,-0.13 -0.04,-0.23 -0.11,-0.3 -0.07,-0.06 -0.2,-0.12 -0.39,-0.17l-0.41 -0.1c-0.24,-0.06 -0.41,-0.16 -0.53,-0.31 -0.12,-0.15 -0.17,-0.34 -0.17,-0.58 0,-0.23 0.04,-0.41 0.13,-0.54 0.09,-0.14 0.21,-0.24 0.38,-0.31 0.16,-0.07 0.37,-0.1 0.63,-0.1 0.12,0 0.26,0.01 0.41,0.02 0.15,0.02 0.28,0.04 0.38,0.07 0.07,0.02 0.1,0.06 0.1,0.12 0,0.05 -0.02,0.13 -0.05,0.23 -0.02,0.06 -0.05,0.09 -0.1,0.09 -0.03,0 -0.08,-0.01 -0.15,-0.02 -0.23,-0.04 -0.44,-0.06 -0.64,-0.06 -0.19,0 -0.33,0.03 -0.43,0.1 -0.09,0.07 -0.14,0.19 -0.14,0.35 0,0.14 0.04,0.24 0.12,0.3 0.08,0.06 0.19,0.12 0.34,0.16l0.4 0.1zm2.12 1.68c0,0.04 -0.01,0.07 -0.03,0.09 -0.02,0.02 -0.05,0.03 -0.08,0.03l-0.3 0c-0.03,0 -0.06,-0.01 -0.08,-0.03 -0.02,-0.02 -0.03,-0.05 -0.03,-0.09l0 -2.63 -0.83 0c-0.08,0 -0.11,-0.03 -0.11,-0.1l0 -0.26c0,-0.07 0.04,-0.11 0.11,-0.11l2.19 0c0.04,0 0.06,0.01 0.09,0.02 0.02,0.02 0.03,0.04 0.03,0.09l0 0.26c0,0.06 -0.04,0.1 -0.12,0.1l-0.83 0 0 2.63zm3.52 -2.98l0 1.82c0,0.24 -0.01,0.43 -0.03,0.56 -0.02,0.14 -0.05,0.25 -0.11,0.34 -0.08,0.14 -0.22,0.25 -0.4,0.33 -0.19,0.08 -0.42,0.11 -0.69,0.11 -0.3,0 -0.54,-0.04 -0.71,-0.12 -0.17,-0.08 -0.29,-0.2 -0.36,-0.35 -0.03,-0.07 -0.05,-0.16 -0.07,-0.29 -0.02,-0.12 -0.03,-0.31 -0.03,-0.58l0 -1.83c0,-0.03 0.01,-0.06 0.03,-0.08 0.02,-0.02 0.05,-0.03 0.08,-0.03l0.31 0c0.03,0 0.05,0.01 0.07,0.03 0.02,0.02 0.02,0.05 0.02,0.08l0 1.96c0,0.13 0.01,0.24 0.02,0.33 0.01,0.08 0.04,0.16 0.07,0.21 0.1,0.14 0.29,0.21 0.58,0.21 0.13,0 0.25,-0.02 0.36,-0.05 0.11,-0.03 0.19,-0.08 0.24,-0.16 0.03,-0.04 0.05,-0.1 0.07,-0.17 0.02,-0.07 0.03,-0.19 0.03,-0.36l0 -1.97c0,-0.03 0.01,-0.06 0.03,-0.08 0.02,-0.02 0.05,-0.03 0.08,-0.03l0.29 0c0.03,0 0.06,0.01 0.07,0.03 0.02,0.02 0.02,0.05 0.02,0.08zm1.3 3.1l-0.39 0c-0.15,0 -0.27,-0.04 -0.34,-0.11 -0.07,-0.07 -0.11,-0.19 -0.11,-0.34l0 -2.28c0,-0.16 0.04,-0.28 0.11,-0.36 0.08,-0.08 0.19,-0.12 0.34,-0.12l0.43 0c0.37,0 0.65,0.03 0.84,0.09 0.53,0.15 0.8,0.65 0.8,1.48 0,0.15 -0.01,0.29 -0.02,0.44 -0.02,0.15 -0.05,0.29 -0.1,0.43 -0.05,0.14 -0.13,0.26 -0.24,0.38 -0.11,0.11 -0.26,0.21 -0.45,0.28 -0.08,0.03 -0.19,0.06 -0.35,0.08 -0.15,0.02 -0.33,0.03 -0.53,0.03zm-0.32 -0.64c0,0.05 0.01,0.09 0.03,0.12 0.02,0.04 0.07,0.05 0.14,0.05l0.29 0c0.23,0 0.41,-0.03 0.54,-0.09 0.18,-0.08 0.3,-0.21 0.37,-0.38 0.07,-0.17 0.1,-0.41 0.1,-0.7 0,-0.27 -0.03,-0.49 -0.09,-0.66 -0.06,-0.17 -0.18,-0.29 -0.35,-0.37 -0.13,-0.06 -0.33,-0.09 -0.59,-0.09l-0.29 0c-0.1,0 -0.15,0.06 -0.15,0.17l0 1.93zm2.9 0.53c0,0.03 -0.01,0.06 -0.03,0.09 -0.02,0.02 -0.05,0.04 -0.08,0.04l-0.3 0c-0.03,0 -0.06,-0.01 -0.08,-0.03 -0.02,-0.02 -0.03,-0.05 -0.03,-0.09l0 -2.97c0,-0.04 0.01,-0.07 0.03,-0.09 0.02,-0.02 0.05,-0.03 0.08,-0.03l0.3 0c0.07,0 0.1,0.04 0.1,0.12l0 2.98zm3.01 -1.51c0,0.24 -0.02,0.47 -0.05,0.69 -0.04,0.22 -0.1,0.4 -0.2,0.54 -0.1,0.15 -0.23,0.26 -0.4,0.34 -0.17,0.08 -0.41,0.12 -0.71,0.12 -0.23,0 -0.43,-0.03 -0.59,-0.08 -0.16,-0.05 -0.3,-0.14 -0.41,-0.27 -0.11,-0.12 -0.19,-0.3 -0.24,-0.51 -0.05,-0.22 -0.08,-0.49 -0.08,-0.82 0,-0.4 0.05,-0.72 0.15,-0.96 0.1,-0.24 0.25,-0.41 0.44,-0.52 0.19,-0.11 0.45,-0.16 0.77,-0.16 0.3,0 0.53,0.03 0.69,0.1 0.16,0.06 0.29,0.16 0.38,0.29 0.09,0.13 0.15,0.3 0.2,0.5 0.04,0.2 0.06,0.45 0.06,0.75zm-0.54 0.01c0,-0.19 -0.01,-0.36 -0.03,-0.52 -0.02,-0.16 -0.06,-0.29 -0.11,-0.39 -0.05,-0.1 -0.13,-0.18 -0.23,-0.22 -0.1,-0.05 -0.24,-0.07 -0.44,-0.07 -0.24,0 -0.42,0.05 -0.53,0.15 -0.11,0.1 -0.18,0.24 -0.22,0.42 -0.04,0.18 -0.06,0.38 -0.06,0.62 0,0.25 0.02,0.47 0.06,0.66 0.04,0.18 0.11,0.32 0.21,0.43 0.1,0.1 0.28,0.15 0.53,0.15 0.21,0 0.37,-0.04 0.48,-0.11 0.11,-0.07 0.19,-0.2 0.25,-0.37 0.06,-0.18 0.08,-0.43 0.08,-0.75z"/>
 </g>
</svg>
