<?xml version="1.0" encoding="UTF-8"?>
<!DOCTYPE svg PUBLIC "-//W3C//DTD SVG 1.1//EN" "http://www.w3.org/Graphics/SVG/1.1/DTD/svg11.dtd">
<!-- Creator: CorelDRAW 2021 (64-Bit) -->
<svg xmlns="http://www.w3.org/2000/svg" xml:space="preserve" width="1.40032in" height="1.35717in" version="1.1" style="shape-rendering:geometricPrecision; text-rendering:geometricPrecision; image-rendering:optimizeQuality; fill-rule:evenodd; clip-rule:evenodd"
viewBox="0 0 114.77 111.23"
 xmlns:xlink="http://www.w3.org/1999/xlink"
 xmlns:xodm="http://www.corel.com/coreldraw/odm/2003">
 <defs>
  <style type="text/css">
   <![CDATA[
    .fil0 {fill:white}
   ]]>
  </style>
 </defs>
 <g id="Layer_x0020_1">
  <metadata id="CorelCorpID_0Corel-Layer"/>
  <g id="_1918320025248">
   <path class="fil0" d="M30.15 0l84.62 0 0 84.62 -26.87 0 0 -47.85c1.9,-1.56 3.12,-3.93 3.12,-6.59 0,-4.7 -3.81,-8.51 -8.51,-8.51 -2.93,0 -5.51,1.48 -7.04,3.73l-45.3 0 0 -25.4zm36.74 40.99c4.7,0 8.51,3.81 8.51,8.51 0,2.62 -1.19,4.97 -3.05,6.53l0 28.58 6.9 0 0 -46.57c-1.88,-0.78 -3.42,-2.21 -4.34,-4l-44.76 0 0 50.57 33.55 0 0 -27.22c-3.12,-1.26 -5.32,-4.32 -5.32,-7.9 0,-4.7 3.81,-8.51 8.51,-8.51z"/>
   <path class="fil0" d="M10.14 34.05c-2.39,0 -4.32,-1.94 -4.32,-4.32 0,-2.39 1.94,-4.32 4.32,-4.32l20.01 0 0 8.65 -20.01 0zm77.75 50.57l0 18.53c0,2.39 -1.94,4.32 -4.32,4.32 -2.39,0 -4.32,-1.94 -4.32,-4.32l0 -18.53 8.65 0z"/>
   <path class="fil0" d="M72.35 84.62l0 18.21c0,2.39 -1.94,4.32 -4.32,4.32l-52.16 0c-2.39,0 -4.32,-1.94 -4.32,-4.32 0,-2.39 1.94,-4.32 4.32,-4.32l47.84 0 0 -13.89 8.65 0z"/>
   <circle class="fil0" cx="8.51" cy="29.8" r="8.51"/>
   <circle class="fil0" cx="83.57" cy="102.72" r="8.51"/>
   <circle class="fil0" cx="8.51" cy="102.72" r="8.51"/>
  </g>
 </g>
</svg>
